<svg width="286" height="340" viewBox="0 0 286 340" fill="none" xmlns="http://www.w3.org/2000/svg">
<g clip-path="url(#clip0_167_57)">
<path d="M280.006 264.963C274.871 276.842 268.793 287.776 261.751 297.829C252.152 311.533 244.293 321.02 238.236 326.287C228.846 334.934 218.786 339.362 208.013 339.614C200.28 339.614 190.953 337.41 180.097 332.94C169.204 328.491 159.195 326.287 150.042 326.287C140.443 326.287 130.148 328.491 119.137 332.94C108.108 337.41 99.2239 339.74 92.4313 339.971C82.1008 340.412 71.8039 335.857 61.5258 326.287C54.9658 320.558 46.7606 310.736 36.931 296.821C26.3847 281.963 17.7141 264.732 10.9215 245.089C3.64678 223.871 0 203.324 0 183.433C0 160.647 4.91687 140.995 14.7653 124.526C22.5053 111.298 32.8022 100.864 45.6896 93.2034C58.577 85.5431 72.5018 81.6395 87.4976 81.3898C95.7029 81.3898 106.463 83.9313 119.835 88.9262C133.168 93.9379 141.73 96.4795 145.484 96.4795C148.29 96.4795 157.801 93.5077 173.924 87.5831C189.172 82.0887 202.04 79.8137 212.582 80.7098C241.149 83.0184 262.61 94.2947 276.883 114.61C251.335 130.111 238.697 151.822 238.948 179.674C239.179 201.368 247.038 219.421 262.485 233.756C269.485 240.408 277.302 245.55 286 249.202C284.114 254.68 282.123 259.926 280.006 264.963ZM214.49 6.80194C214.49 23.8058 208.286 39.6823 195.92 54.3774C180.998 71.847 162.948 81.9417 143.375 80.3488C143.126 78.3089 142.981 76.1619 142.981 73.9058C142.981 57.5821 150.078 40.1125 162.68 25.8288C168.972 18.5966 176.974 12.5832 186.678 7.78622C196.36 3.06078 205.519 0.447511 214.133 0C214.385 2.27315 214.49 4.54667 214.49 6.80194Z" fill="white"/>
</g>
<defs>
<clipPath id="clip0_167_57">
<rect width="286" height="340" fill="white"/>
</clipPath>
</defs>
</svg>
