<svg width="1666" height="2049" viewBox="0 0 1666 2049" fill="none" xmlns="http://www.w3.org/2000/svg">
<path fill-rule="evenodd" clip-rule="evenodd" d="M643.452 8.735C642.383 21.57 643.642 80.192 645.519 105C646.414 116.825 647.521 139.55 647.98 155.5L648.813 184.5L648.477 153.5C648.293 136.45 647.349 112.375 646.379 100C645.135 84.118 644.599 66.102 644.558 38.75C644.526 17.438 644.428 0 644.34 0C644.252 0 643.852 3.931 643.452 8.735ZM842.068 0.833C841.825 5.61 852.997 26.949 861.578 38.101C877.566 58.879 896.225 72.668 940 96.056C986.36 120.824 1004.85 136.47 1017.94 162C1025.7 177.145 1029.3 190.766 1033 218.961C1036.19 243.329 1040.05 257.113 1048.23 273.438C1059.62 296.156 1072.48 312.948 1109.54 353.529C1119.6 364.545 1131.53 378.028 1136.04 383.49C1164.54 417.975 1183.11 454.594 1190.55 491C1194.62 510.942 1195.34 524.041 1194.59 565C1193.36 633.381 1197.07 651.269 1225.02 711.5C1243.12 750.523 1247.07 763.407 1247.06 783.5C1247.05 808.102 1238.97 821.092 1209.3 844.227C1194.12 856.063 1183.71 866.065 1178.32 874C1173.72 880.78 1168.85 890.781 1166.89 897.5C1164.56 905.487 1164.57 901.714 1166.91 890.392C1170.49 873.04 1178.87 855.237 1196.99 826.5C1202.54 817.7 1209.62 805.444 1212.72 799.265C1217.95 788.849 1218.39 787.427 1218.77 779.765C1219.73 760.753 1213.33 734.25 1189.01 656.5C1166.16 583.439 1158.34 547.891 1154.5 499.5C1151.25 458.589 1150.49 457.097 1116.79 424.96C1069.2 379.577 1050.7 359.261 1033.49 333.5C1018.13 310.523 1008.78 289.724 1003.01 265.733C1000.2 254.033 999.134 247.155 995.475 217.089C993.638 202.006 990.721 190.95 984.897 177.008C962.955 124.481 917.51 86.675 864 76.434C851.339 74.011 826.274 73.978 813.035 76.366C757.172 86.446 702.704 117.472 670.749 157.417C655.876 176.009 647.967 188.606 609.703 254.646C574.131 316.04 563.936 332.484 549.654 351.5C532.354 374.535 507.169 400.462 482.5 420.631C456.624 441.787 445.944 454.348 435.926 475.407C428.973 490.021 426.882 498.719 426.27 515.56C425.354 540.788 429.392 557.627 445.84 597.164C458.608 627.856 463.662 653.709 461.201 675.744C460.54 681.66 458.691 691.675 457.091 698C452.979 714.251 451.617 724.836 452.339 734.91C454.067 759.012 463.604 777.768 488.163 805.36C507.88 827.512 519.03 844.381 528.301 866.087C537.472 887.559 540.896 902.409 541.656 924C542.477 947.315 538.901 965.266 529.805 983.5C524.197 994.74 520.9 998.807 498.589 1022C475.446 1046.06 469.297 1053.84 461.763 1068.59C450.112 1091.4 445.543 1109.4 445.667 1132C445.761 1149.17 446.986 1157.53 455.258 1197.5L461.467 1227.5L461.43 1248C461.402 1263.63 460.863 1272.28 459.163 1284.4C456.728 1301.75 451.655 1328 447.273 1345.91L444.481 1357.32L440.765 1351.3C430.216 1334.21 414.971 1329.03 395.321 1335.87C390.624 1337.51 383.501 1341.14 378.589 1344.41C368.766 1350.95 351.266 1367.41 342.5 1378.37C339.2 1382.49 336.231 1385.9 335.901 1385.94C335.572 1385.97 334.279 1382.06 333.028 1377.25C326.337 1351.52 316.194 1328.16 282.547 1261C246.676 1189.41 239.115 1172.22 232.915 1148.17C227.314 1126.45 228.048 1109.57 235.575 1087.07C249.476 1045.52 281.487 1009.75 323.717 988.565C344.484 978.148 358.712 973.454 401 963.069C434.136 954.93 444.761 951.602 458.5 945.057C475.083 937.156 486.947 926.75 490.034 917.398C493.603 906.583 483.901 878.774 468.466 855.578C460.878 844.174 459.619 843.59 466.623 854.722C480.097 876.14 486.252 896.048 484.709 913.225C484.04 920.667 481.224 925.102 473.598 930.723C460.261 940.553 443.814 946.753 408 955.451C364.3 966.064 345.673 972.046 327.637 981.262C316.098 987.158 299.199 998.253 288.824 1006.74C252.704 1036.31 227 1084.64 227 1123C227 1152.77 238.279 1182.92 284.977 1278C315.597 1340.34 323.021 1357.57 329.442 1381.18L332.075 1390.86L322.711 1403.68C295.308 1441.2 277.708 1470.98 244.827 1535.45C218.234 1587.59 204.131 1610.37 181.55 1637.68C152.03 1673.38 104.818 1712.06 47.5 1747.5C29.755 1758.47 1.695 1775 0.813 1775C0.366 1775 0 1775.47 0 1776.04C0 1777.26 1.467 1776.43 34.405 1756.72C121.976 1704.31 171.394 1661.33 209.425 1604.5C222.133 1585.51 230.649 1570.37 250.48 1531.5C268.368 1496.44 280.003 1474.8 290.715 1456.65C298.704 1443.12 317.483 1414.62 326.042 1403.03C331.33 1395.88 332.408 1394.87 333.019 1396.53C336.842 1406.93 337.716 1441.34 334.593 1458.5C328.256 1493.32 310.255 1532.87 280.667 1577C276.795 1582.78 265.763 1598.53 256.152 1612C212.167 1673.67 188.664 1711.12 167.038 1754C134.105 1819.3 123.124 1866.32 130.606 1910C133.47 1926.72 139.198 1944.51 152.011 1976.5C162.536 2002.77 168.595 2019.54 172.909 2034.32C177.269 2049.26 180.274 2053.18 176.354 2038.82C171.963 2022.73 165.588 2004.37 155.233 1978C139.526 1937.99 135.205 1923.8 132.458 1903.16C126.455 1858.06 141.945 1803.62 181.014 1732.5C199.592 1698.68 219.788 1667.62 253.351 1621.24C265.792 1604.06 279.952 1584.03 284.817 1576.74C317.536 1527.76 334.721 1486.19 339.082 1445.5C340.45 1432.73 339.703 1409.48 337.541 1397.56L336.101 1389.62L343.296 1381.06C358.014 1363.55 374.069 1349.28 387 1342.22C400.525 1334.84 413.993 1333.44 424.19 1338.35C430.42 1341.35 438.562 1349.45 441.436 1355.51C443.668 1360.21 443.452 1361.3 435.329 1386.31C424.163 1420.69 414.616 1445.6 388.494 1508.5C371.609 1549.16 353.107 1595.4 345.478 1616C337.828 1636.66 324.93 1670.91 315.546 1695.5C297.441 1742.94 286.949 1783.46 283.959 1817.5C281.895 1841 285.275 1864.09 293.865 1885.18C302.345 1906 314.089 1923.91 341.933 1958.5C362.832 1984.46 374.737 2000.35 381.969 2011.92C387.297 2020.45 395.122 2035.82 398.263 2043.93C399.206 2046.36 400.241 2048.09 400.561 2047.77C401.418 2046.91 395.556 2032.77 390.297 2023C382.078 2007.74 369.524 1989.99 346.507 1961.09C305.621 1909.75 293.38 1887.82 287.947 1856.15C280.828 1814.65 292.062 1761.77 326.893 1672.82C332.346 1658.89 339.817 1639.4 343.495 1629.5C350.495 1610.66 376.384 1546.12 392.031 1508.5C419.335 1442.86 431.671 1409.43 443.884 1368C459.117 1316.32 467.343 1260.63 464.12 1231C463.492 1225.22 460.746 1209.47 458.018 1196C448.363 1148.31 446.64 1132.07 449.357 1114.37C452.335 1094.96 461.523 1071.93 472.329 1056.79C477.685 1049.29 489.271 1037.29 506.752 1021.16C520.882 1008.12 526.085 1001.3 532.923 986.862C541.527 968.694 545 951.901 545 928.468C545 904.335 541.416 887.114 531.437 863.294C522.261 841.393 510.668 824.092 492.169 804.693C467.656 778.988 460.31 766.007 456.999 742.548C455.389 731.134 456.14 721.627 460.204 702C463.178 687.638 463.417 685.032 463.457 666.5C463.494 649.363 463.176 644.997 461.234 636C457.521 618.8 449.535 592.248 443.144 575.86C433.154 550.239 429.231 530.813 430.345 512.468C431.79 488.676 441.602 465.333 458.076 446.5C467.898 435.271 474.561 429.767 510 403.613C522.256 394.567 537.234 380.086 547.181 367.662C564.662 345.83 581.136 318.087 624.475 237.5C645.044 199.254 655.611 181.743 668.528 164.5C677.048 153.126 692.979 136.896 703.567 128.803C727.764 110.306 757.173 95.691 786.5 87.586C804.899 82.501 813.043 81.5 836 81.5C854.819 81.5 858.786 81.788 867.816 83.81C888.736 88.496 907.665 96.513 924.68 107.893C941.45 119.111 960.807 139.414 971.334 156.828C984.845 179.177 988.787 195.26 994.662 252C995.876 263.723 990.932 294.709 984.85 313.5C983.07 319 978.616 329.35 974.951 336.5C971.287 343.65 964.713 356.475 960.343 365C951.432 382.383 949 390.479 949 402.767C949 412.037 950.747 417.839 955.216 423.41L958.352 427.32L955.426 426.71C953.817 426.374 947.1 424.97 940.5 423.589C925.786 420.51 900.102 415.97 898.025 416.082C897.186 416.127 903.25 417.66 911.5 419.488C939.72 425.741 963.498 432.13 971 435.474C985.653 442.006 1005.77 447.057 1058 457.32C1086.62 462.943 1093.65 465.011 1101.23 470.029C1110.2 475.968 1112.87 482.436 1117 508.133C1126.07 564.588 1130.33 578.696 1155 634C1176.77 682.805 1181.45 697.552 1181.33 717C1181.2 738.566 1172.44 763.014 1157.16 784.442C1153.9 789.013 1141.91 801.96 1128.91 814.942C1105.23 838.589 1096.24 849.467 1090.56 861.352C1085.27 872.42 1083.7 879.869 1084.29 891C1085.23 908.402 1091.44 921.629 1115.98 958.5C1147.89 1006.44 1158.15 1037.97 1152.45 1070.61C1148.03 1095.96 1135.35 1120.15 1106.1 1159C1099.68 1167.53 1084.09 1188.22 1071.45 1205C1058.82 1221.78 1041.77 1245.18 1033.57 1257C1025.37 1268.82 1013.68 1285.7 1007.58 1294.49C994.107 1313.93 969.888 1346.24 955.303 1364.22C949.382 1371.53 930.352 1394.82 913.014 1416C864.948 1474.71 850.864 1493.05 832.275 1521.14C788.515 1587.26 776.122 1643.15 791.614 1704.49C793.005 1709.99 797.953 1725.75 802.609 1739.5C817.342 1783.01 819.51 1794.6 819.444 1829.5C819.394 1856.04 819.072 1860.12 811.974 1924C806.06 1977.22 804.191 1999.55 803.329 2027.23C802.692 2047.67 802.714 2048 804.72 2048C806.675 2048 806.761 2047.39 806.861 2032.87C807.033 2007.91 809.752 1974.27 815.498 1926C825.436 1842.5 825.734 1810.55 816.898 1775.66C815.807 1771.35 811.119 1756.18 806.482 1741.94C791.791 1696.85 789.641 1685.99 789.559 1656.5C789.496 1634.07 790.167 1628.25 794.988 1609.44C802.142 1581.53 814.775 1555.23 837.465 1521C854.105 1495.9 872.524 1472.16 919.672 1415.06C944.489 1385.01 945.977 1383.72 969.5 1371.99C994.279 1359.63 1016.62 1354 1040.85 1354C1055.21 1354.01 1065.62 1355.48 1086.17 1360.43C1127.88 1370.48 1132.35 1371.44 1153.5 1374.93C1184.94 1380.12 1218.89 1381.57 1237.5 1378.52C1258.28 1375.11 1274.06 1368.54 1287.5 1357.68C1297.96 1349.23 1303.82 1341.15 1314.4 1320.63C1328.09 1294.05 1335.42 1284.21 1347.58 1276.07C1355.15 1271.01 1362.98 1268 1373.69 1266.04C1382.33 1264.45 1401.3 1261.96 1401.69 1262.36C1401.88 1262.55 1395.98 1263.92 1388.58 1265.39C1364.89 1270.12 1354.45 1274.64 1344.5 1284.5C1337 1291.93 1332.62 1300.12 1329.44 1312.66C1326.97 1322.36 1326.12 1331.2 1324.01 1369C1322.92 1388.33 1320.61 1402.27 1317.17 1410.17C1313.01 1419.74 1304.87 1426.12 1293 1429.11C1284.34 1431.3 1259.48 1430.58 1223.5 1427.12C1181.38 1423.06 1165.73 1422.02 1146.8 1422.01C1116.22 1421.99 1091.45 1425.44 1070.94 1432.56C1022.26 1449.48 960.157 1501.53 929.482 1551.12C899.565 1599.48 890.194 1651.86 901.526 1707.36C906.641 1732.42 912.714 1748.25 933.029 1789.5C963.094 1850.54 968.265 1869.99 971.987 1936C974.117 1973.78 976.966 1999.22 981.45 2020.5C985.306 2038.8 988.057 2048 989.677 2048C990.602 2048 990.94 2047.36 990.6 2046.25C983.387 2022.63 979.265 1993.59 976.517 1947C973.795 1900.86 972.221 1886.7 967.429 1865.21C962.131 1841.47 955.122 1823.69 934.22 1781C927.084 1766.43 919.189 1749.32 916.676 1743C899.113 1698.8 895.343 1652.67 905.915 1611.32C913.072 1583.33 927.819 1555.04 948.834 1529C973.554 1498.36 1019.95 1459.59 1051.21 1443.45C1073.12 1432.13 1095.28 1427.13 1131 1425.45C1148.69 1424.61 1173.24 1425.97 1223 1430.55C1243.62 1432.44 1265.81 1433.99 1272.29 1433.99C1297.75 1434.01 1311.53 1427.92 1318.48 1413.59C1323.68 1402.86 1325.61 1390.72 1327.01 1359.7C1328.27 1331.87 1329.52 1320.86 1332.66 1310.05C1335.9 1298.88 1339.7 1292.42 1347.06 1285.61C1355.46 1277.82 1364.92 1273.57 1384.33 1268.85C1406.42 1263.48 1411.17 1262.11 1420.94 1258.32C1425.58 1256.52 1429.51 1255.18 1429.68 1255.35C1429.85 1255.51 1421.55 1261.32 1411.24 1268.25C1389.77 1282.69 1384.01 1287.5 1375.79 1297.85C1366.64 1309.35 1361.33 1321.25 1358.94 1335.58C1358.24 1339.77 1357.69 1357.48 1357.56 1380.5C1357.36 1415.23 1357.16 1419.24 1355.25 1427.11C1347.98 1456.94 1330.31 1473.83 1299.07 1480.81C1287.62 1483.37 1253.41 1483.09 1227.5 1480.23C1185.47 1475.59 1164.8 1475.21 1138 1478.61C1061.07 1488.38 990.083 1537.26 957.419 1602.96C934.727 1648.6 935.948 1691.07 961.056 1729.5C974.871 1750.64 997.944 1773.11 1036 1802.48C1073.96 1831.77 1094.39 1853.17 1141.51 1913.02C1175.69 1956.42 1209.03 2002.57 1228.56 2033.5C1233.42 2041.2 1237.53 2047.69 1237.7 2047.92C1237.86 2048.15 1238.28 2048.05 1238.63 2047.71C1238.97 2047.36 1235.07 2040.43 1229.96 2032.29C1189.09 1967.22 1125.11 1883.68 1083.54 1841.09L1068.5 1825.69L1076.5 1831.59C1109.94 1856.27 1133.92 1867.17 1184 1880.5C1225.65 1891.58 1250.18 1901.96 1278.5 1920.48C1323.37 1949.82 1354.35 1985.64 1380.99 2039C1385.71 2048.47 1385.77 2048.56 1386.56 2047.77C1387.34 2046.99 1371.99 2016.59 1364.72 2004.5C1335 1955.13 1292.97 1917.7 1242 1895.21C1226.35 1888.3 1210.34 1882.93 1186 1876.43C1165.45 1870.93 1152.6 1867.05 1153.19 1866.5C1153.36 1866.34 1156.43 1866.82 1160 1867.57C1163.57 1868.32 1179.1 1870.53 1194.5 1872.49C1265.79 1881.57 1293.26 1886.23 1330.5 1895.57C1420.42 1918.11 1508.03 1955.45 1599 2009.98C1614.64 2019.36 1651.31 2043.33 1655.15 2046.69C1656.19 2047.6 1658.39 2048.01 1661.15 2047.81L1665.5 2047.5L1649.5 2036.36C1554.01 1969.9 1434.17 1914.39 1328.5 1887.68C1287.58 1877.33 1259.73 1872.72 1206.5 1867.48C1142.11 1861.15 1129.81 1857.27 1089.5 1830.53C1038.07 1796.43 1004.6 1758.2 991.519 1718.64C983.238 1693.6 983.096 1671.43 991.063 1647.65C998.001 1626.94 1008.41 1610.33 1024.39 1594.48C1044.71 1574.33 1068.92 1561.35 1101.5 1553.13C1131.41 1545.58 1159.58 1542.45 1233 1538.51C1308.9 1534.43 1338.59 1530.54 1362.49 1521.54C1381.95 1514.21 1395.83 1500.76 1403.26 1482C1411.64 1460.85 1412.89 1437.57 1407.91 1395.5C1404.98 1370.82 1404.74 1345.19 1407.33 1333C1411.78 1312.04 1416.87 1300.87 1434.47 1273.5C1441.19 1263.05 1448.5 1251.35 1450.72 1247.5C1478.33 1199.62 1486.4 1145.06 1473.89 1091C1470.99 1078.51 1468.52 1070.54 1461.32 1050.53C1450.42 1020.24 1447.32 1003.01 1448.28 978.115C1448.6 970.077 1449.59 959.675 1450.51 955C1452.78 943.337 1458.48 926.032 1463.05 916.916C1465.14 912.744 1468.42 904.869 1470.34 899.416C1472.25 893.962 1476.08 884.775 1478.84 879C1487.85 860.159 1491.4 846.048 1491.29 829.5C1491.16 809.84 1485.01 793.906 1467.59 768.099C1449.14 740.757 1446.39 731.391 1455.22 726.004C1457.56 724.578 1460.27 724.006 1464.69 724.004C1468.1 724.002 1471.15 723.571 1471.47 723.048C1471.79 722.524 1470.56 720.127 1468.72 717.721C1464.56 712.27 1457.02 697.756 1453.54 688.508C1450.93 681.576 1450.92 681.454 1452.47 674.508C1455.31 661.774 1463.36 651.232 1475.32 644.586C1478.72 642.696 1488.87 638.619 1497.87 635.527C1522.01 627.237 1531.22 622.12 1543.34 610.271C1557.24 596.677 1570.63 575.405 1585.49 543.285C1622.59 463.115 1648.15 363.453 1656.67 265.674C1658.78 241.54 1659.05 180.437 1657.15 158.5C1652.72 107.302 1643.46 61.025 1628.38 14.781C1624.3 2.267 1622.71 -1.043 1621.4 0.268C1621.14 0.526 1622.93 6.984 1625.38 14.619C1662.47 130.402 1665.5 247.967 1634.88 383.401C1611.87 485.188 1568.41 585.221 1536.19 610.534C1527.73 617.183 1519.47 621.111 1499.5 627.984C1489.6 631.391 1479.27 635.376 1476.54 636.839C1464.68 643.203 1454.05 656.846 1450.67 670.035C1449.93 672.943 1449.06 674.912 1448.76 674.411C1448.45 673.91 1447.05 667.875 1445.65 661C1438.03 623.545 1439.47 595.313 1451.13 553.516C1461.72 515.545 1464.23 502.96 1465.98 479C1467.96 451.887 1463.95 419.919 1455.94 399C1452.58 390.226 1446.17 378.035 1441.22 371C1428.31 352.62 1404.37 334.957 1381 326.555C1369.87 322.554 1363.03 321.194 1343.01 319.001C1333.05 317.91 1320.31 316.088 1314.7 314.952C1287.49 309.443 1259.63 296.359 1236.6 278.267C1225.85 269.827 1207.42 250.766 1198.63 239C1189.91 227.34 1187.04 224.019 1191.87 231.212C1205.51 251.482 1229.35 275.425 1249.24 288.812C1277.67 307.954 1303.93 317.113 1343 321.517C1366.86 324.207 1376.6 326.802 1392 334.573C1433.37 355.456 1454.32 388.328 1459.96 441.211C1463.12 470.774 1460.19 498.852 1449.46 542.018C1438.22 587.201 1436.48 599.477 1437.28 627.484C1437.86 647.734 1439.8 661.126 1444.53 677.566C1447.6 688.284 1457.23 708.609 1462.43 715.376L1466.18 720.252L1459.34 719.539C1431.58 716.646 1389.12 700.884 1346 677.461C1326.3 666.754 1321.73 664.804 1317.31 665.2C1313 665.586 1312.6 667.233 1316.6 668.053C1318.31 668.402 1330.23 673.9 1343.1 680.272C1376.82 696.968 1403.65 707.857 1430 715.549C1443.72 719.553 1442.19 719.9 1425.63 716.542C1408.33 713.037 1397.86 709.816 1378.46 702.037C1359.01 694.236 1352.06 692 1347.25 692C1343.53 692 1340.16 693.47 1338.28 695.913C1336.8 697.843 1336.64 705.265 1337.98 709.94C1338.52 711.825 1338.8 713.537 1338.59 713.744C1338.38 713.951 1334.98 709.031 1331.02 702.81C1308.28 667.057 1296.63 626.317 1298.32 588.5C1299.38 564.861 1304.53 544.834 1314.94 523.872C1322.21 509.239 1328.45 499.662 1344.76 478.132C1358.69 459.739 1363.08 452.037 1365.7 441.451C1367.12 435.69 1367.18 433.693 1366.15 427.671C1362.01 403.546 1342.13 385.098 1283.5 350.992C1231.51 320.749 1199.74 296.843 1163.96 261.048C1134.32 231.39 1112.87 205.039 1089.45 169.5C1054.9 117.061 1034.62 70.884 1021.65 15.048C1019.7 6.67 1017.74 0.414 1016.99 0.163C1015.02 -0.494 1016.3 7.664 1021.44 28.5C1033.59 77.764 1053.78 122.323 1086.48 172C1111.13 209.461 1132.05 235.193 1162.93 266.062C1198.95 302.062 1227.24 323.627 1285.68 359.629C1335.58 390.366 1354.65 408.594 1357.85 428.59C1359.99 442.004 1355.56 452.451 1336.44 479C1310.81 514.592 1300.8 534.566 1294.92 561.841C1292.24 574.308 1291.17 604.903 1292.95 618.318C1298.35 658.871 1315.69 697.085 1344.93 732.83C1354.56 744.598 1372.9 763.376 1408.12 797.514C1419.45 808.506 1430.87 820.425 1433.47 824C1452.07 849.486 1454.44 877.127 1440.39 904.659C1435.07 915.08 1430.22 921.965 1414.12 941.906C1386.59 976.002 1377.22 993.941 1375.37 1016.08C1373.8 1034.92 1380.92 1056.65 1394.5 1074.43C1396.42 1076.95 1398 1079.19 1398 1079.4C1398 1079.61 1396.34 1080.09 1394.32 1080.47C1387.05 1081.83 1372.31 1087.33 1362 1092.53C1347.46 1099.85 1337.25 1106.47 1316.42 1122.07C1283.31 1146.85 1269.43 1155.03 1236 1169.47C1215.23 1178.44 1206.7 1183.44 1197.77 1191.84C1187.25 1201.75 1184.54 1209.84 1189.05 1217.88C1193.55 1225.88 1200.16 1228.25 1224.22 1230.51C1251.76 1233.1 1268.41 1236.98 1307.5 1249.91C1323.64 1255.25 1324.42 1255.78 1333.09 1267.4C1337.63 1273.48 1336.57 1281.49 1330.05 1290.5C1324.07 1298.75 1320.61 1304.71 1312.03 1321.5C1300.44 1344.17 1293.62 1352.62 1279.29 1362.04C1253.37 1379.08 1219.66 1382.92 1165.5 1375C1148 1372.44 1124.8 1367.7 1106 1362.85C1097.47 1360.64 1085.48 1357.55 1079.34 1355.97C1062.91 1351.74 1052.68 1350.65 1036 1351.33C1019.95 1351.98 1010.37 1353.82 993.109 1359.55C981.01 1363.57 958.79 1373.98 951.266 1379.16L946.523 1382.42L949.012 1379.34C981.229 1339.38 997.921 1317.19 1015.81 1290.55C1020.59 1283.42 1027.02 1274.88 1030.1 1271.55C1033.19 1268.22 1040.47 1259.16 1046.29 1251.41C1065.66 1225.6 1076.69 1214.88 1114.99 1184.63C1160.86 1148.41 1177.04 1129.79 1186.79 1101.98C1195.1 1078.3 1193.46 1050.77 1182.04 1022.11C1174.71 1003.71 1169.85 994.86 1148.47 961C1125.5 924.62 1120.51 912.982 1120.58 896C1120.67 875.521 1127.48 861.035 1155.31 822.174C1168.02 804.428 1172.55 796.874 1177.48 785.187C1185.94 765.124 1187.97 742.882 1184.07 713C1180.61 686.559 1179.03 681.471 1157.73 628C1133.18 566.421 1127.91 549.666 1121.02 511.372C1116.16 484.379 1113.38 477.148 1105.1 469.859C1097.83 463.46 1089.26 460.078 1066 454.44C1054.18 451.574 1035.05 446.943 1023.5 444.148C971.69 431.615 961.699 427.232 955.318 414.239C952.855 409.223 952.514 407.43 952.612 400C952.763 388.604 955.858 379.49 966.03 360.5C984.531 325.959 991.127 307.386 993.906 282C994.478 276.775 995.244 269.8 995.609 266.5L996.273 260.5L997.654 266.5C1001.92 285.037 1011.8 308.678 1022.46 325.87C1038.99 352.522 1055.82 372.067 1100.93 417C1140.15 456.062 1141.98 458.306 1145.51 471.581C1146.38 474.837 1148.2 488.3 1149.55 501.5C1155.58 560.172 1160.36 581.935 1187.15 672.5C1208.08 743.263 1213.79 769.415 1211.09 782.03C1209.6 788.956 1203.45 801.881 1192.22 821.69C1167.99 864.404 1159.71 886.998 1159.67 910.5C1159.63 929.53 1163.69 943.223 1177.34 970.055C1181.38 978 1190.32 995.525 1197.19 1009C1213.79 1041.52 1219.66 1059.67 1223.05 1088.97C1226.32 1117.18 1218.78 1138.75 1198.85 1158.23C1187.34 1169.48 1172.96 1178.49 1142.5 1193.53C1127.65 1200.87 1110.77 1209.99 1105 1213.81C1092.27 1222.22 1081.94 1232.74 1076.84 1242.5C1072.02 1251.72 1065.5 1271.67 1062.62 1286C1061.35 1292.32 1059.36 1299.36 1058.2 1301.63C1050.75 1316.16 1023.3 1332.22 989.154 1342.03C977.575 1345.36 981.393 1345.29 993.867 1341.95C1026.24 1333.27 1053.45 1316.89 1061.35 1301.3C1062.75 1298.54 1065.04 1291.82 1066.44 1286.39C1069.6 1274.06 1079.02 1249.3 1083.29 1242.05C1091.36 1228.37 1106.04 1217.6 1142 1199C1154.93 1192.31 1170.12 1184.09 1175.77 1180.73C1206.3 1162.58 1222.75 1140.54 1227.14 1111.91C1229.73 1094.99 1223.22 1058.47 1212.38 1029.11C1208.58 1018.82 1196.06 992.767 1185.9 974L1179.67 962.5L1186.12 968.621C1201.27 983.023 1219.3 990.465 1242 991.691C1261.67 992.754 1279.17 986.606 1294.89 973.111C1313.5 957.136 1321.7 952.37 1342.5 945.438C1360.74 939.36 1369.1 934.985 1376.2 927.808C1386.02 917.892 1386.34 910.318 1377.14 905.788C1372.75 903.622 1371.41 903.503 1352 903.566C1321.46 903.663 1302.74 907.087 1285.59 915.71C1271.13 922.985 1261.57 936.047 1261.69 948.388C1261.77 956.713 1264.38 961.65 1273.74 971.162L1281.28 978.825L1276.39 981.283C1268.66 985.17 1259.51 987 1247.81 987C1211.38 987 1180.01 964.047 1171.3 931C1169.21 923.096 1168.99 906.792 1170.87 899C1172.99 890.186 1180.29 876.129 1186.69 868.516C1190.02 864.567 1199.51 855.961 1208.53 848.711C1228.27 832.863 1232.83 828.448 1239.04 819.215C1246.51 808.105 1249.25 798.462 1249.21 783.5C1249.16 763.201 1244.76 748.331 1226.72 707.5C1210.32 670.38 1205.37 656.429 1201 634.998C1197.31 616.907 1196.69 606.25 1197.32 571.91C1198.39 514.164 1194.73 485.946 1182.03 454.082C1167.32 417.145 1148.83 390.394 1109.4 348.954C1069.92 307.471 1050.89 280.291 1042.23 253C1038.49 241.253 1037.44 235.992 1035.49 219.5C1030.85 180.208 1024.04 161.232 1007.16 140.579C994.379 124.93 976.303 112.29 939.5 93.263C901.738 73.741 889.553 65.679 873.445 49.561C862.956 39.065 852.796 24.342 847.523 12C842.124 -0.638 842.141 -0.605 842.068 0.833ZM1141.39 12C1141.39 18.875 1141.55 21.688 1141.74 18.25C1141.94 14.813 1141.94 9.188 1141.74 5.75C1141.55 2.313 1141.39 5.125 1141.39 12ZM1142.38 45.5C1142.38 52.1 1142.55 54.67 1142.74 51.211C1142.94 47.752 1142.94 42.352 1142.74 39.211C1142.54 36.07 1142.38 38.9 1142.38 45.5ZM1143.33 66.5C1143.33 70.35 1143.51 71.802 1143.73 69.728C1143.95 67.653 1143.94 64.503 1143.72 62.728C1143.5 60.952 1143.32 62.65 1143.33 66.5ZM1144.3 80C1144.3 83.025 1144.49 84.263 1144.72 82.75C1144.94 81.237 1144.94 78.763 1144.72 77.25C1144.49 75.737 1144.3 76.975 1144.3 80ZM1145.27 90C1145.27 92.475 1145.47 93.487 1145.71 92.25C1145.94 91.013 1145.94 88.987 1145.71 87.75C1145.47 86.513 1145.27 87.525 1145.27 90ZM1146.23 99C1146.23 100.925 1146.44 101.713 1146.69 100.75C1146.94 99.787 1146.94 98.213 1146.69 97.25C1146.44 96.287 1146.23 97.075 1146.23 99ZM1147.23 107C1147.23 108.925 1147.44 109.713 1147.69 108.75C1147.94 107.787 1147.94 106.213 1147.69 105.25C1147.44 104.287 1147.23 105.075 1147.23 107ZM1148.19 113.5C1148.21 115.15 1148.44 115.704 1148.69 114.731C1148.95 113.758 1148.93 112.408 1148.66 111.731C1148.38 111.054 1148.17 111.85 1148.19 113.5ZM1149.19 119.5C1149.21 121.15 1149.44 121.704 1149.69 120.731C1149.95 119.758 1149.93 118.408 1149.66 117.731C1149.38 117.054 1149.17 117.85 1149.19 119.5ZM1150.24 125C1150.24 126.375 1150.58 128.85 1151 130.5C1151.68 133.176 1151.76 133.23 1151.76 131C1151.76 129.625 1151.42 127.15 1151 125.5C1150.32 122.824 1150.24 122.77 1150.24 125ZM1152.16 136C1152.16 137.375 1152.39 137.938 1152.66 137.25C1152.94 136.563 1152.94 135.438 1152.66 134.75C1152.39 134.063 1152.16 134.625 1152.16 136ZM1153.08 140.583C1153.13 141.748 1153.36 141.985 1153.68 141.188C1153.97 140.466 1153.94 139.603 1153.6 139.271C1153.27 138.939 1153.04 139.529 1153.08 140.583ZM1154.08 144.583C1154.13 145.748 1154.36 145.985 1154.68 145.188C1154.97 144.466 1154.94 143.603 1154.6 143.271C1154.27 142.939 1154.04 143.529 1154.08 144.583ZM1155.08 148.583C1155.13 149.748 1155.36 149.985 1155.68 149.188C1155.97 148.466 1155.94 147.603 1155.6 147.271C1155.27 146.939 1155.04 147.529 1155.08 148.583ZM1156.08 152.583C1156.13 153.748 1156.36 153.985 1156.68 153.188C1156.97 152.466 1156.94 151.603 1156.6 151.271C1156.27 150.939 1156.04 151.529 1156.08 152.583ZM1157.08 156.583C1157.13 157.748 1157.36 157.985 1157.68 157.188C1157.97 156.466 1157.94 155.603 1157.6 155.271C1157.27 154.939 1157.04 155.529 1157.08 156.583ZM1159.07 162.556C1158.97 164.054 1163.14 176.191 1163.6 175.73C1163.81 175.52 1162.9 172.232 1161.57 168.424C1160.24 164.616 1159.11 161.975 1159.07 162.556ZM855 181.048C795.308 186.736 738.104 219.272 694.781 272.174C675.715 295.456 652.148 331.542 626.974 376C581.554 456.212 573.086 468.573 533.235 512.829C516.106 531.852 506.857 545.95 498.982 565.04C480.737 609.271 482.091 668.464 502.922 737.299C511.573 765.886 517.05 779.749 544.486 842.5C551.31 858.109 557.246 876.485 560.664 892.59C563.164 904.366 563.409 907.433 563.452 927.5C563.495 947.047 563.238 950.669 561.153 959.987C555.161 986.762 547.555 999.781 522.168 1026.72C506.189 1043.68 501.325 1050.43 493.076 1067.08C476.972 1099.59 470.747 1131.06 473.937 1163.87C474.598 1170.67 477.345 1187.02 480.041 1200.2C488.358 1240.86 490.149 1259.17 488.095 1282.5C484.682 1321.26 476.073 1355.71 438.496 1481C402.895 1599.7 393.399 1636.99 383.027 1698.84C380.805 1712.09 376.529 1735.88 373.525 1751.71C362.82 1808.13 362.589 1809.88 362.572 1835C362.559 1854.73 362.838 1858.8 364.839 1868C368.146 1883.22 372.307 1894.9 379.087 1907.98C390.889 1930.74 403.835 1946.55 444.904 1988.34C473.89 2017.84 489.061 2034.96 494.213 2043.98C495.471 2046.18 496.843 2047.99 497.263 2047.99C499.227 2048.01 486.051 2029.88 474.521 2016.69C470.39 2011.96 454.745 1995.59 439.754 1980.3C401.7 1941.49 388.878 1925.43 378.377 1903.42C372.978 1892.11 369.435 1881.36 366.276 1866.73C364.863 1860.18 364.507 1853.9 364.534 1836C364.572 1810.75 365.093 1806.81 375.476 1753.5C378.475 1738.1 382.773 1715.38 385.028 1703C396.814 1638.31 407.571 1596.8 443.337 1478C482.236 1348.8 490.677 1313.46 492.647 1271.58C492.989 1264.32 492.755 1252.49 492.122 1245C490.965 1231.3 489.901 1224.48 483.629 1190.5C475.864 1148.44 476.726 1123.79 487.05 1092.69C495.224 1068.07 504.663 1052.36 524.229 1030.81C539.116 1014.42 543.433 1008.93 549.974 998.043C564.684 973.568 570.72 940.354 566.558 906.797C563.248 880.118 554.962 855.184 532.653 804.768C527.46 793.033 521.193 778.498 518.727 772.466C498.734 723.585 490.004 683.418 490.001 640.301C489.998 598.431 497.794 569.211 516.76 540C523.541 529.556 526.019 526.476 542.88 507.532C576.862 469.352 591.074 448.351 630.54 378C660.836 323.994 675.911 300.182 694.481 277C746.861 211.609 824.951 174.445 891 183.474C924.453 188.048 942.097 200.367 948.478 223.608C949.217 226.299 949.857 227.6 949.9 226.5C949.943 225.4 949.35 222.43 948.582 219.901C940.913 194.633 918.337 182.254 876.965 180.632C870.109 180.363 860.225 180.55 855 181.048ZM1165.03 180.5C1165.03 181.05 1165.47 182.175 1166 183C1166.53 183.825 1166.97 184.05 1166.97 183.5C1166.97 182.95 1166.53 181.825 1166 181C1165.47 180.175 1165.03 179.95 1165.03 180.5ZM1167.03 185.5C1167.03 186.05 1167.47 187.175 1168 188C1168.53 188.825 1168.97 189.05 1168.97 188.5C1168.97 187.95 1168.53 186.825 1168 186C1167.47 185.175 1167.03 184.95 1167.03 185.5ZM647.079 187.583C647.127 188.748 647.364 188.985 647.683 188.188C647.972 187.466 647.936 186.603 647.604 186.271C647.272 185.939 647.036 186.529 647.079 187.583ZM1169.09 190.5C1169.09 191.05 1170.18 193.525 1171.5 196C1172.82 198.475 1173.91 200.05 1173.91 199.5C1173.91 198.95 1172.82 196.475 1171.5 194C1170.18 191.525 1169.09 189.95 1169.09 190.5ZM1177.5 208C1178.89 210.75 1180.26 213 1180.53 213C1180.81 213 1179.89 210.75 1178.5 208C1177.11 205.25 1175.74 203 1175.47 203C1175.19 203 1176.11 205.25 1177.5 208ZM1182 216C1182.59 217.1 1183.29 218 1183.57 218C1183.84 218 1183.59 217.1 1183 216C1182.41 214.9 1181.71 214 1181.43 214C1181.16 214 1181.41 214.9 1182 216ZM1185 221C1185.59 222.1 1186.29 223 1186.57 223C1186.84 223 1186.59 222.1 1186 221C1185.41 219.9 1184.71 219 1184.43 219C1184.16 219 1184.41 219.9 1185 221ZM950.195 231.5C950.215 233.15 950.439 233.704 950.693 232.731C950.947 231.758 950.93 230.408 950.656 229.731C950.382 229.054 950.175 229.85 950.195 231.5ZM892.269 415.693C893.242 415.947 894.592 415.93 895.269 415.656C895.946 415.382 895.15 415.175 893.5 415.195C891.85 415.215 891.296 415.439 892.269 415.693ZM865.352 419.959C818.116 425.369 779.172 448.671 707.5 514.407C635.988 579.995 597.203 621.824 570.283 662.393C561.579 675.51 554.829 688.365 552.373 696.5C548.9 708.003 550.468 738.615 556.574 778.5C562.339 816.158 566.028 823.817 596.545 861.5C621.366 892.15 629.135 909.826 629.288 936C629.461 965.49 618.592 987.352 584.546 1026C556.378 1057.97 547.762 1071.83 541.487 1095.22C535.864 1116.19 536.174 1139.38 542.604 1179C547.248 1207.61 556.43 1257.79 558.565 1266.24C563.993 1287.7 571.891 1303.59 580.478 1310.32C588.323 1316.48 592.188 1317.5 607.5 1317.48C618.939 1317.47 623.048 1317.05 629.96 1315.17C648.654 1310.1 665.814 1301.78 704.5 1279.04C726.44 1266.15 759.934 1249.3 778 1242.07C791.158 1236.8 823.999 1225.88 862.5 1213.97C888.97 1205.78 900.189 1200.71 917.954 1188.93C962.224 1159.57 982.491 1115.1 974.057 1065.85C968.791 1035.1 953.23 1006.27 928.501 981.459C906.035 958.918 884.936 944.931 829 915.499C780.284 889.865 756.459 874.094 734.626 853.027C702.426 821.957 687.509 786.867 690.97 750.336C694.872 709.154 703.668 685.933 721.867 668.764C725.655 665.191 731.397 660.97 734.627 659.384C743.288 655.131 754.358 655.303 774.482 660.002L789.463 663.5L783.982 664.32C769.4 666.503 763.183 668.192 755.11 672.167C748.092 675.622 744.836 678.078 737.5 685.453C727.229 695.777 722.686 703.397 718.393 717.5C715.937 725.568 715.657 728.002 715.683 741C715.709 753.427 716.091 756.93 718.357 765.5C721.688 778.104 730.816 796.866 739.053 808.04C760.597 837.27 783.385 855.671 848 896.012C904.524 931.303 929.472 949.963 952.5 974.175C974.26 997.055 987.377 1021.31 992.449 1048.04C996.104 1067.31 992.575 1093.28 980.838 1133.5C961.357 1200.25 929.989 1249.26 887 1280.1C863.237 1297.16 847.254 1304.36 794.102 1321.95C749.308 1336.79 730.1 1343.72 714.744 1350.62C709.378 1353.03 704.762 1355 704.487 1355C703.884 1355 704.708 1343.52 706.102 1332.5C708.933 1310.12 718.76 1284.63 730.388 1269.5C732.079 1267.3 732.665 1266.13 731.691 1266.91C728.678 1269.3 719.193 1284.3 715.124 1293.11C710.458 1303.22 705.774 1317.62 703.613 1328.5C702.194 1335.65 700.039 1352.06 700.003 1356C699.995 1356.83 695.627 1360.08 690.245 1363.27C671.266 1374.51 657.666 1386.64 648.527 1400.47C635.726 1419.85 629.868 1437.47 617.599 1493.5C606.009 1546.43 606.126 1546.05 594.691 1568.95C566.749 1624.91 552.998 1675.84 553.001 1723.36C553.002 1739.89 554.341 1754.4 557.616 1773.37C560.05 1787.46 562.188 1796.4 578.821 1862C596.891 1933.27 605.981 1991.39 605.996 2035.75C606 2047.33 606.109 2048 608 2048C609.9 2048 610 2047.33 609.996 2034.75C609.989 2012.93 607.247 1981.42 602.924 1953.5C597.447 1918.12 589.334 1882.97 574.998 1832.5C560.141 1780.2 557.484 1764.29 557.538 1728C557.578 1700.68 558.65 1691.2 564.523 1666.27C573.128 1629.75 594.937 1575.99 613.524 1545.5C624.735 1527.11 636.339 1512.67 654.511 1494.51C665.712 1483.31 673.538 1474.52 677.426 1468.77C683.199 1460.24 683.566 1459.91 693.885 1454.27C734.923 1431.83 763.846 1399.5 779.125 1359C782.727 1349.45 784.259 1346.7 788.154 1342.78C797.433 1333.44 813.056 1324.95 842.89 1313.04C851.336 1309.67 858.496 1307.16 858.802 1307.47C859.813 1308.48 855.945 1319.35 850.96 1329.5C842.098 1347.55 823.86 1369.33 800.2 1390.11C793.215 1396.25 774 1412.12 757.5 1425.38C717.961 1457.14 702.617 1470.41 684.487 1488.5C632.344 1540.53 602.789 1596.81 592.858 1663C591.064 1674.96 590.676 1682.06 590.643 1703.5C590.588 1739.38 593.234 1761.33 605.414 1826C620.985 1908.68 627.84 1961.11 631.498 2025.5C631.811 2031 632.312 2038.31 632.613 2041.75L633.159 2048H636.588H640.017L639.515 2042.75C639.239 2039.86 638.541 2030.3 637.963 2021.5C633.825 1958.45 627.211 1908.34 613.012 1832.5C597.936 1751.97 594.334 1718.7 596.876 1683.44C602.464 1605.94 636.923 1539.59 702.5 1480.06C719.035 1465.05 728.077 1457.5 762.151 1430.24C796.426 1402.83 801.431 1398.56 816.89 1383.54C843.58 1357.6 858.533 1335.52 865.321 1312.01L867.758 1303.57L884.129 1296.47C902.499 1288.51 913.084 1282.77 927 1273.22C950.311 1257.22 974.741 1233.79 986.18 1216.48C993.267 1205.75 1013.13 1169.23 1017.09 1159.67C1019.1 1154.8 1020.75 1152.82 1027 1147.76C1055.69 1124.51 1075.5 1094.65 1084.17 1061.56C1086.85 1051.3 1087.8 1029.24 1086.02 1018.22C1082.94 999.109 1078.7 987.709 1061.43 952C1054.64 937.975 1047.72 922.393 1046.05 917.374C1036.48 888.613 1041.03 868.645 1061.89 847.938C1070.95 838.932 1079.5 832.377 1103.53 815.997C1126.68 800.214 1135.63 793.158 1145.58 782.862C1158.22 769.78 1164.69 759.108 1168.66 744.831C1171.08 736.128 1171.11 711.882 1168.72 699.924C1166.2 687.331 1161.49 673.891 1155.42 661.974C1150.16 651.643 1147.04 646.677 1131.8 624.386C1115.73 600.872 1110.96 585.87 1108.98 552.646C1106.04 503.171 1103.48 492.233 1092.52 482.12C1086.39 476.472 1080.59 473.934 1062.5 468.979C1031.79 460.568 1018.86 456.58 976.699 442.519C932.704 427.846 920.483 424.304 904.5 421.595C893.129 419.667 874.644 418.894 865.352 419.959ZM905.5 426.445C925.47 430.079 938.189 433.73 994.5 451.992C1008.25 456.452 1032.1 463.719 1047.5 468.143C1079.6 477.362 1087.37 480.807 1093.08 488.355C1100.47 498.122 1103.63 511.902 1105.01 540.5C1107.05 582.55 1108.51 591.113 1116.47 607.5C1118.87 612.45 1123.91 620.842 1127.67 626.148C1131.42 631.455 1137.54 640.078 1141.26 645.31C1158.25 669.207 1166.66 691.531 1167.7 715.501C1168.37 731.025 1167.16 739.465 1162.66 750.55C1153.48 773.142 1138.69 787.601 1089 822.569C1077.97 830.333 1070.19 836.793 1062 844.988C1045.12 861.881 1040.03 871.756 1039.22 889.144C1038.37 907.448 1041.72 918.036 1060.87 957.65C1078.56 994.244 1084 1012.32 1084 1034.52C1084 1064.02 1071.18 1093.35 1045.19 1123.28C1036.35 1133.46 1023.41 1145.3 1024.21 1142.47C1024.52 1141.39 1025.96 1136.48 1027.41 1131.57C1033.07 1112.35 1036.75 1080.78 1035.51 1062C1031.82 1006.43 1015.45 955.463 988.11 914.452C978.932 900.688 977.894 898.641 975.935 890.452C974.731 885.414 973.569 876.472 973.278 870C971.667 834.128 989.049 806.848 1022.97 792.002C1027.09 790.203 1041.71 784.949 1055.47 780.327C1091.92 768.088 1108.53 759.613 1123.82 745.456C1131.99 737.896 1138.5 728.535 1142.57 718.5C1145.15 712.163 1145.42 710.363 1145.43 699.5C1145.43 688.825 1145.14 686.753 1142.76 680.737C1137.19 666.683 1129.71 657.566 1105.95 635.87C1090.77 622.007 1087.48 615.122 1084.54 591C1083.7 584.125 1082.51 576.7 1081.9 574.5C1076.41 554.719 1060.35 534.112 1042.05 523.389C1017.86 509.213 989.899 506.29 943.514 513.088C935.806 514.218 908.35 519.354 882.5 524.502C832.932 534.373 807.327 538.995 774.5 543.998C742.558 548.866 721.908 552.818 700.844 558.094C676.53 564.183 664.619 568.002 654.41 572.982C650.062 575.103 646.468 576.762 646.422 576.669C646.282 576.38 693.952 530.662 704.5 520.969C770.476 460.346 815.113 432.576 858 425.474C868.76 423.692 893.108 424.189 905.5 426.445ZM703.353 457.517C685.308 465.768 667.264 469.797 631.506 473.559C594.333 477.47 583.794 480.665 566.756 493.187C524.871 523.973 503.608 573.696 503.763 640.5C503.875 688.724 512.434 726.805 539.05 797.5C562.085 858.684 574.231 889.037 584.467 911C595.921 935.577 596.516 937.791 596.414 955.5C596.277 979.323 591.785 992.193 577.39 1010C550.627 1043.11 540.119 1059.58 533.888 1078.18C528.477 1094.33 526.951 1104.41 526.344 1128C525.692 1153.37 527.021 1168.54 532.963 1203.5C538.623 1236.81 539.357 1243.59 539.342 1262.5C539.311 1301.34 531.874 1332.9 492.684 1460.5C463.16 1556.63 453.44 1589.19 437.615 1645C402.65 1768.3 392.187 1822.02 395.932 1859C398.936 1888.68 406.785 1910.33 423.496 1935.06C435.414 1952.69 443.464 1962.04 477.304 1997.56C497.193 2018.43 509.662 2032.78 516.142 2042.25C518.305 2045.41 520.529 2048 521.085 2048C523.457 2048 505.389 2024.92 490.421 2008.84C484.965 2002.97 473.01 1990.31 463.856 1980.7C436.325 1951.8 423.192 1934.63 413.222 1914.5C405.94 1899.8 401.661 1886.07 398.887 1868.5C397.095 1857.16 397.343 1829.04 399.366 1814C403.654 1782.12 417.503 1723.14 436.052 1657.77L441.366 1639.04L443.706 1646.77C457.355 1691.88 466.314 1708.6 480.556 1715.57C485.378 1717.93 486.915 1718.2 492.956 1717.77C501.564 1717.16 506.832 1714.25 515.935 1705.1C523.743 1697.25 531.859 1685.56 542.742 1666.5C552.353 1649.67 565.378 1625 564.657 1625C564.372 1625 560.67 1631.19 556.43 1638.75C535.1 1676.8 525.295 1691.62 514.203 1702.58C498.629 1717.96 485.383 1718.74 472.676 1705.02C463.37 1694.96 457.36 1681.33 449.961 1653.47C447.627 1644.69 445.158 1636.38 444.474 1635C443.39 1632.82 443.864 1630.31 448.154 1615.5C457.823 1582.12 469.474 1543.62 487.654 1485C534.815 1332.92 542.234 1302.45 542.317 1260.5C542.356 1240.85 541.566 1232.93 536.464 1201.8C530.874 1167.7 529.694 1153.68 530.299 1128.56C530.869 1104.89 532.34 1094.78 537.407 1079.68C542.802 1063.61 548.23 1054.69 567.06 1030.93C583.28 1010.47 588.388 1003.08 592.937 993.5C603.083 972.136 607.651 954.469 606.676 940.363C605.663 925.712 602.203 916.387 589.421 893.861C557.206 837.086 536.16 769.065 531.915 708C527.078 638.409 543.748 608.31 642.962 507.5C661.366 488.8 670.591 479.184 663.462 486.131C656.333 493.079 649.205 499.829 647.622 501.131C642.899 505.019 597.692 552.294 586.474 565.076C550.397 606.185 535.727 631.621 530.368 662.364C528.16 675.028 528.975 713.006 531.852 731.5C539.128 778.274 554.081 827.337 572.911 866.214C576.184 872.971 583.376 886.6 588.894 896.5C594.779 907.06 600.078 918.013 601.713 923C604.223 930.655 604.494 932.842 604.444 945C604.393 957.551 604.165 959.133 601.202 967.5C599.45 972.45 598.269 975.375 598.578 974C598.888 972.625 599.391 966.086 599.697 959.469C600.394 944.393 598.628 936.642 590.456 918.917C576.644 888.956 573.663 881.906 566.505 862.282C558.179 839.455 554.714 830.204 545.797 807C519.156 737.671 511.662 711.617 506.822 671.5C504.956 656.033 505.255 617.921 507.356 603.5C513.593 560.674 527.426 531.299 552.918 506.744C565.283 494.833 575.288 487.839 585.801 483.757C595.874 479.846 603.663 478.473 632.759 475.483C659.526 472.733 672.327 470.486 684.604 466.383C692.343 463.796 711.47 455.182 709.5 455.17C708.95 455.167 706.184 456.223 703.353 457.517ZM1006.5 514.116C1035.62 517.853 1060.67 535.513 1073.78 561.552C1078.08 570.092 1079.77 576.583 1081.97 593.082C1085.38 618.711 1089.73 626.592 1110.06 644.048C1128.71 660.065 1136.84 671.108 1140.94 685.98C1148.39 713.011 1135.21 738.613 1104.24 757.303C1090.99 765.294 1079.72 769.758 1044.5 780.959C1012 791.293 994.895 802.279 983.239 820.297C977.78 828.737 974.756 836.067 972.481 846.375C970.26 856.442 970.898 875.742 973.84 887.496C974.941 891.893 975.707 895.627 975.541 895.792C975.122 896.211 957.612 872.438 950.078 861.221C930.024 831.363 926.573 807.106 939.968 790.16C942.07 787.501 946.096 783.632 948.914 781.563C959.528 773.772 965.415 771.493 1015 755.976C1051.65 744.506 1079.31 730.305 1094.69 715.065C1105.58 704.28 1109.32 691.6 1104.54 681.687C1103 678.498 1102.64 676.76 1103.36 676.04C1104.08 675.32 1103.84 675 1102.59 675C1101.58 675 1088.61 663.178 1073.14 648.158C1033.16 609.34 1023.54 600.827 1007.16 589.768C997.714 583.396 983.453 576.685 974.936 574.604C960.152 570.992 938.846 573.134 908 581.335C898.925 583.747 879.575 588.9 865 592.784C850.425 596.669 828.825 602.376 817 605.467C758.52 620.75 735.208 631.45 712.023 653.647C688.365 676.299 673.56 706.565 668.934 741.738C667.115 755.572 668.27 780.67 671.362 794.5C674.172 807.07 678.448 819.604 684.093 831.822C687.111 838.355 688 841.51 688 845.685C688 854.278 684.921 856.396 669 858.758L662.5 859.722L667.701 859.861C680.262 860.197 688.255 856.173 689.718 848.776L690.534 844.646L695.017 851.568C707.197 870.376 726.2 890.292 746.426 905.445C765.299 919.583 781.092 928.757 821.5 949.055C863.363 970.083 876.366 977.433 890.5 988.059C917.581 1008.42 935.364 1034.95 941.071 1063.5C942.729 1071.79 942.507 1087.16 940.614 1095.24C934.313 1122.11 913.314 1145.77 881.666 1161.67C855.886 1174.61 821.54 1184.38 787.04 1188.57C770.045 1190.64 740.587 1190.14 731.672 1187.63C708.97 1181.23 698 1167.06 698 1144.13C698 1128.49 702.98 1109.72 716.205 1075.5C728.791 1042.93 733.534 1027.82 736.565 1010.61C742.542 976.684 736.267 942.656 719.341 917.218C709.886 903.007 696.958 890.45 669.191 868.505C660.071 861.297 658.232 859.429 659.691 858.854C661.113 858.293 660.918 858.126 658.776 858.07C656.957 858.023 653.634 855.956 648.776 851.848C616.692 824.719 600.333 799.569 591.011 763.04C584.086 735.902 583.139 700.941 588.599 674.046C590.622 664.08 597.076 644.774 600.948 637.102C610.694 617.796 626.916 599.277 644.593 587.278C652.781 581.72 667.128 574.7 675.616 572.098C682.181 570.085 687.949 567.106 685.425 567.032C682.941 566.958 668.847 572.366 660.417 576.628C610.639 601.79 583 650.827 583 713.98C583 746.806 590.077 777.78 603.089 801.903C615.048 824.075 630.368 840.201 674.391 876.959C690.875 890.722 706.244 905.614 712.755 914.132C729.638 936.218 736.802 959.487 735.65 988.5C734.688 1012.74 730.434 1028.63 712.228 1076C697.94 1113.17 694.835 1125.01 694.649 1143C694.553 1152.35 694.95 1155.84 696.774 1161.69C701.494 1176.8 712.884 1186.79 731.535 1192.19C738.907 1194.33 741.362 1194.5 764.5 1194.5C784.097 1194.5 791.877 1194.1 800.5 1192.66C814.576 1190.31 834.604 1185.18 848 1180.49C862.233 1175.5 886.444 1163.57 897.936 1155.87C909.11 1148.38 923.431 1135.06 929.619 1126.39C939.356 1112.74 944.981 1095.53 944.993 1079.34C945.022 1041.21 921.618 1003.69 881.018 976.788C871.12 970.23 856.252 962.252 825.5 947C780.039 924.452 768.33 917.823 750.365 904.463C710.799 875.041 685.233 836.896 675.992 793.5C672.683 777.96 672.166 753.001 674.832 737.5C680.419 705.014 692.398 680.899 713.196 660.272C740.714 632.979 767.277 621.921 862.5 598.119C942.739 578.063 956.939 576.084 975.156 582.42C989.67 587.467 1001.15 595.754 1037.12 627.162C1059.12 646.363 1076.76 660.836 1087.8 668.735C1091.26 671.214 1093.86 673.473 1093.58 673.757C1092.72 674.613 1081.7 672.116 1070.05 668.429C1064.01 666.517 1047.08 660.017 1032.42 653.986C1000.74 640.95 990.271 637.466 978.092 635.904C966.357 634.399 958.584 635.39 930.759 641.939C891.222 651.244 867.238 654.276 833.5 654.233C809.921 654.203 799.645 653.354 774.5 649.359C750.332 645.519 742.204 646.751 729.667 656.157C717.024 665.642 701.657 688.703 695.6 707.282C694.204 711.561 691.474 723.125 689.531 732.979C685.484 753.512 684.901 767.986 687.557 781.989C692.177 806.342 707.182 832.349 729.345 854.418C751.932 876.909 775.997 893.062 827 919.969C876.348 946.002 895.463 957.987 916.679 976.2C962.13 1015.22 981.743 1069.32 968.446 1119C959.542 1152.27 935.891 1178.74 898.5 1197.27C884.776 1204.07 881.132 1205.41 840.5 1218.58C776.223 1239.41 752.639 1249.35 703.582 1276.27C651.786 1304.69 625.6 1314.11 602.163 1312.77C581.228 1311.57 571.455 1300.68 563.465 1269.66C558.77 1251.42 544.198 1172.47 541.488 1150.58C537.209 1116.02 541.728 1089.83 555.996 1066.5C561.917 1056.82 566.6 1050.91 582.559 1033C604.986 1007.83 614.26 995.402 621.748 980.492C633.175 957.742 635.469 933.279 628.307 910.561C623.234 894.471 615.975 882.734 594.686 856.196C565.074 819.285 563.046 814.433 556.453 764.699C550.4 719.047 550.742 702.377 558.029 687.943C568.796 666.613 594.333 632.59 623.695 600.454C650.503 571.114 668.196 564.664 760.971 550.404C797.691 544.761 825.822 539.665 860 532.468C929.541 517.824 949.37 514.394 972 513.095C985.751 512.305 994.381 512.561 1006.5 514.116ZM979.549 647.07C989.652 648.475 996.466 650.634 1020.55 660.057C1055.6 673.77 1071.28 677.945 1089.46 678.407L1099.42 678.66L1100.66 681.58C1102.85 686.696 1102.26 688.461 1096.62 693.794C1089.11 700.898 1077.94 707.981 1060.92 716.427C1035.23 729.176 1012.29 735.729 957 746.108C920.917 752.882 911.185 755.447 899.5 761.269C887.136 767.429 881.194 774.453 878.563 786.024C876.589 794.703 876.599 799.31 878.618 811.074C883.226 837.922 896.521 862.347 934.098 913C955.803 942.259 961.287 950.064 968.425 961.858C983.901 987.43 991.141 1008.2 993.982 1035.17C995.492 1049.5 994.993 1052.65 993.013 1041.28C988.535 1015.56 978.287 995.168 958.692 973C938.935 950.648 911.677 930.436 853.5 894.998C801.588 863.377 779.381 847.418 759.5 827.445C736.565 804.404 723.37 781.013 718.932 755.531C717.165 745.387 718.226 725.246 720.987 716.5C727.432 696.089 740.385 680.874 758.5 672.438C771.979 666.161 784.722 664.942 815.73 666.963C841.011 668.611 845.586 668.771 843.5 667.939C842.163 667.405 843.57 667.117 847.741 667.07C868.089 666.841 903.214 661.436 935.87 653.51C948.441 650.459 961.376 647.576 964.613 647.103C967.851 646.631 970.805 646.189 971.178 646.122C971.55 646.055 975.318 646.482 979.549 647.07ZM810.5 673.632C830.175 692.129 860.201 707.757 891 715.532C937.102 727.169 993.725 723.877 1040.39 706.845C1051.66 702.731 1070.44 693.559 1075 689.939C1076.38 688.848 1072.32 690.622 1066 693.883C1013.28 721.063 942.135 725.425 875.149 705.585C849.316 697.933 830.821 688.923 814.5 676.037C808.171 671.039 806.984 670.326 810.5 673.632ZM1100.44 702.115C1094.59 713.66 1078.82 726.293 1057.54 736.482C1043.68 743.116 1030.85 747.807 1000.5 757.334C987.3 761.479 972.531 766.532 967.681 768.564C937.504 781.205 924.905 800.495 930.474 825.529C933.913 840.986 941.424 855.44 959.558 881.5C987.321 921.395 991.334 927.742 1000.97 947C1013.93 972.884 1022.08 999.331 1027.94 1034.5C1034.47 1073.66 1032.03 1107.05 1020.23 1139.87C1016.05 1151.49 1015.2 1152.37 1001.44 1159.28C993.172 1163.44 976.206 1169.54 975.335 1168.67C975.003 1168.34 975.671 1165.46 976.819 1162.28C984.326 1141.48 994.067 1101.59 996.911 1080C1002.48 1037.7 994.494 1000.43 971.188 960C963.611 946.855 958.242 939.026 938.623 912.513C901.279 862.048 888.991 840.459 883.404 815.5C881.034 804.914 880.975 790.127 883.277 783.468C889.412 765.717 906.34 758.561 966 748.497C1009.27 741.198 1034.48 734.002 1060.79 721.44C1074.91 714.697 1090.58 704.932 1098 698.248C1103.41 693.372 1104.22 694.656 1100.44 702.115ZM1355.92 695.479C1359.06 696.292 1368.12 699.621 1376.06 702.876C1384 706.13 1395.63 710.412 1401.9 712.39C1413.78 716.142 1435.11 721 1439.69 721H1442.35L1440.24 723.25C1437.26 726.438 1436 730.324 1436 736.384C1436 744.676 1438.4 750.93 1451.01 775.5C1457.5 788.15 1464.01 801.875 1465.48 806C1474.43 831.161 1475.9 859.376 1469.56 884.384C1463.41 908.608 1451.44 929.07 1424.92 960.665C1398.77 991.813 1393.8 999.12 1388.66 1013.95C1385.12 1024.18 1384.68 1035.91 1387.47 1045.57C1389.83 1053.76 1396.08 1065.46 1402.02 1072.83C1406.51 1078.41 1406.78 1079 1404.75 1078.98C1398.76 1078.94 1386.21 1054.42 1383.05 1036.57C1378.07 1008.47 1387.63 985.712 1421.51 945C1441.54 920.926 1449.11 908.781 1454.55 892C1456.93 884.672 1457.32 881.776 1457.39 871C1457.49 856.087 1456.01 849.569 1449.54 836.5C1442.08 821.41 1434.41 812.546 1398.38 777.376C1349.41 729.572 1343.18 722.121 1339.89 707.413C1338.43 700.889 1339.26 697.464 1342.76 695.565C1346.26 693.667 1348.86 693.65 1355.92 695.479ZM1453.38 722.004L1456.5 722.007L1453.19 724.026C1442.75 730.393 1446.44 743.778 1467.66 776.5C1478.04 792.508 1481.33 798.692 1484.62 808.358C1491.18 827.629 1489.46 848.851 1479.28 874.277C1475.56 883.581 1474.06 884.778 1476.01 876.89C1476.61 874.476 1477.36 865.3 1477.68 856.5C1478.83 824.549 1474.01 807.453 1454.23 773.464C1438.71 746.785 1435.69 737.472 1439.54 728.254C1441.92 722.542 1443.98 720.746 1447.35 721.42C1448.95 721.739 1451.66 722.002 1453.38 722.004ZM1182.55 755.97C1180.53 769.512 1174.91 785.989 1168.49 797.196C1165.6 802.255 1157.73 813.724 1151.01 822.683C1130.27 850.355 1122.03 866.159 1118.27 885.5C1116.99 892.105 1116.91 895.07 1117.83 902.5C1119.89 919.151 1126.36 933.343 1144.96 962C1172.71 1004.77 1182.4 1024.68 1187.51 1049.5C1189.48 1059.06 1189.77 1078.06 1188.08 1086.5C1182.14 1116.04 1165.19 1139.64 1129.77 1167.66C1122.93 1173.07 1110.19 1183.12 1101.46 1190C1083.58 1204.08 1064.1 1222.43 1054.25 1234.44C1050.62 1238.87 1046.98 1243.18 1046.16 1244C1041.92 1248.26 1065.51 1216.7 1081.98 1196.06C1131.28 1134.31 1147.93 1106.51 1154.59 1074.8C1156.84 1064.08 1156.85 1045.47 1154.61 1033.76C1150.43 1011.9 1138.63 987.061 1116.02 952.5C1094.97 920.346 1089.22 908.719 1086.88 893.685C1086.12 888.742 1086.14 885.042 1086.95 880.346C1090.12 862.145 1097.15 851.962 1128.98 819.464C1144.27 803.855 1155.89 791.052 1159.85 785.464C1171.06 769.621 1179.98 748.077 1182.3 731.198L1183.5 722.5L1183.78 734.186C1183.94 741.015 1183.44 750.069 1182.55 755.97ZM1376.75 910.295C1379.25 911.644 1380 912.712 1380 914.905V917.759L1366.25 918.428C1331.62 920.113 1314.42 922.684 1301.32 928.137C1288.9 933.311 1281.3 940.455 1278.95 949.177C1277.34 955.154 1279.02 955.849 1280.99 950.022C1285.35 937.156 1299.4 929.679 1327 925.534C1338.6 923.792 1378.27 920.002 1378.89 920.577C1379.1 920.777 1376.6 923.557 1373.33 926.755C1366.28 933.659 1358.04 937.927 1339.01 944.533C1318.85 951.531 1310.39 956.221 1293.65 969.686C1289.33 973.159 1285.45 976 1285.02 976C1283.4 976 1272.21 963.073 1270.16 958.824C1260.68 939.244 1275.94 920.409 1306.94 913.425C1329.93 908.247 1369.66 906.466 1376.75 910.295ZM1448.86 946C1444.04 964.679 1442.8 986.796 1445.51 1005.88C1447.51 1019.92 1449.77 1029.05 1456.88 1051.73C1460.2 1062.3 1464.27 1076.47 1465.93 1083.23C1478.64 1135.03 1475.34 1188.73 1457.07 1227.5C1450.84 1240.71 1444.55 1250.69 1431.67 1267.77C1413.35 1292.08 1406.57 1304.12 1401.67 1321.01C1395.91 1340.9 1395.76 1359.04 1401.02 1399.5C1403.73 1420.36 1404.08 1425.66 1403.7 1440C1403.18 1459.47 1401.37 1467.73 1394.57 1481.54C1387.05 1496.82 1375.54 1507.59 1359.76 1514.1C1338.27 1522.96 1308.55 1526.86 1234.5 1530.54C1155.53 1534.45 1119.68 1539.18 1086.8 1550.01C1036.86 1566.45 1001.9 1598.84 986.426 1643C983.42 1651.58 983.424 1648.88 986.436 1636.5C995.009 1601.27 1011.02 1572.69 1035.19 1549.46C1055.68 1529.77 1077.74 1518.2 1104 1513.38C1116.29 1511.13 1140.82 1511.1 1159 1513.31C1166.43 1514.22 1181.95 1516.13 1193.5 1517.56C1208.48 1519.42 1221.56 1520.32 1239.15 1520.72C1295.23 1521.98 1331.64 1513.79 1357.82 1494.03C1375.52 1480.66 1386.79 1461.79 1391.66 1437.37C1394.09 1425.16 1394.08 1397.95 1391.63 1375.12C1389.24 1352.86 1389.74 1330.98 1392.87 1320.5C1395.95 1310.22 1401.7 1299.24 1412.19 1283.68C1425.59 1263.8 1428.04 1260 1427.49 1260C1426.6 1260 1403.59 1291.27 1398.79 1299C1393.46 1307.56 1388.8 1318.65 1386.32 1328.64C1383.94 1338.21 1383.97 1363.6 1386.39 1385.29C1387.79 1397.9 1388.12 1406.24 1387.74 1418.79C1387.11 1438.97 1385.31 1446.87 1377.87 1461.95C1373.42 1470.98 1371.48 1473.66 1363.61 1481.56C1343.14 1502.1 1317.43 1511.07 1270.37 1514.06C1246.39 1515.59 1226.63 1514.63 1184.5 1509.92C1142.81 1505.26 1123.31 1504.78 1104.85 1507.95C1075.32 1513.02 1051.14 1526.46 1028.09 1550.6C1007.03 1572.66 990.731 1603.67 984.09 1634.32C981.798 1644.9 979.01 1672.16 979.004 1684.07C978.995 1700.64 984.38 1721.61 993.493 1740.5C1002.87 1759.93 1012.87 1773.76 1031.43 1792.95C1042.72 1804.64 1042.27 1804.4 1022 1788.09C969.317 1745.71 948.679 1716.44 943.984 1677.45C938.367 1630.81 966.865 1574.41 1016.03 1534.88C1052.76 1505.35 1091.91 1488.47 1139 1481.84C1155.1 1479.57 1194.01 1480.23 1224 1483.28C1268.6 1487.81 1282.93 1487.75 1303 1482.97C1327.67 1477.1 1345.89 1461.28 1353.64 1439C1358.94 1423.74 1359.34 1419.49 1359.45 1377.5C1359.53 1343.21 1359.77 1337.59 1361.38 1331C1366.44 1310.41 1379.3 1292.73 1399.61 1278.46C1429.35 1257.55 1444.91 1244.9 1450.05 1237.43C1455.14 1230.03 1457.33 1224.08 1457.41 1217.5C1457.49 1209.39 1454.78 1204.14 1444.88 1193.31C1440.52 1188.53 1436.68 1183.59 1436.37 1182.34C1435.78 1179.97 1438.6 1174.39 1441.69 1171.86C1445.03 1169.12 1451.12 1158.4 1453.16 1151.69C1454.97 1145.72 1455.19 1143.08 1454.74 1132.15C1454.16 1117.91 1452.14 1109.98 1446.24 1098.67C1439.57 1085.92 1431 1079.55 1418.94 1078.39C1410.67 1077.6 1406.47 1074.92 1400.57 1066.66C1391.8 1054.36 1387.35 1040.51 1388.4 1028.78C1389.91 1012.05 1398.64 997.911 1425 969.5C1435.24 958.463 1444.4 947.332 1447.93 941.614C1449.19 939.569 1450.35 938.031 1450.51 938.197C1450.67 938.364 1449.92 941.875 1448.86 946ZM1429.09 1085.07C1437.81 1089.46 1446.77 1102.65 1450.46 1116.5C1452.8 1125.32 1453.52 1138.64 1452 1145.09C1450.12 1153.07 1445.95 1160.62 1439.08 1168.5C1432.77 1175.74 1430.87 1179.85 1431.73 1184.39C1432.01 1185.85 1436.01 1191.19 1440.62 1196.27C1450.78 1207.45 1453 1211.61 1453 1219.44C1453 1235.08 1435.51 1253.02 1414.07 1259.39C1406.22 1261.72 1405.51 1261.28 1412.67 1258.53C1430.73 1251.57 1437.26 1241.85 1433.48 1227.51C1432.61 1224.21 1428.24 1214.2 1423.76 1205.27C1416.87 1191.51 1415.56 1188.09 1415.19 1182.93L1414.75 1176.84L1424.74 1167.16C1439.04 1153.29 1442.39 1145.57 1442.35 1126.5C1442.31 1105.2 1435.79 1090.34 1423.5 1083.58C1420.89 1082.14 1420.83 1082.01 1423 1082.59C1424.38 1082.96 1427.12 1084.07 1429.09 1085.07ZM1422.24 1089.71C1426.61 1092.26 1429.61 1096.96 1432.28 1105.44C1435.21 1114.77 1435.46 1136.35 1432.74 1145.18C1429.42 1155.94 1417.51 1165.81 1403.42 1169.48C1399.4 1170.53 1388.68 1171.34 1370 1172C1287.53 1174.93 1245.92 1182.37 1205.59 1201.4C1199.21 1204.4 1194 1206.42 1194 1205.87C1194 1204.11 1204.34 1193.86 1210 1190.01C1217.75 1184.74 1227.24 1180.14 1244 1173.55C1275.76 1161.05 1290.58 1152.44 1321.58 1128.51C1331.44 1120.9 1343.2 1112.25 1347.73 1109.29C1363.51 1098.96 1382.87 1090.89 1398.92 1087.95C1406.28 1086.6 1418.5 1087.52 1422.24 1089.71ZM1009.48 1165.03C1004.88 1174.18 988.647 1203.28 983.006 1212.5C968.615 1236.03 950.103 1254.52 927.773 1267.67C918.647 1273.05 866 1299.36 866 1298.55C866 1298.37 870.802 1295.6 876.67 1292.38C904.836 1276.96 925.687 1257.58 944.321 1229.5C952.181 1217.66 965.122 1192.59 970.903 1178.01L973.874 1170.51L979.897 1169.3C988.059 1167.64 999.894 1163.59 1006.8 1160.09C1009.94 1158.5 1012.64 1157.33 1012.81 1157.5C1012.99 1157.66 1011.49 1161.05 1009.48 1165.03ZM1411.69 1171.59C1403.76 1179.52 1405.88 1192.01 1418.65 1212.5C1421.39 1216.9 1424.39 1222.42 1425.32 1224.77C1427.37 1229.98 1427.49 1237.16 1425.59 1240.8C1419.97 1251.55 1401.05 1257.96 1374.85 1257.99C1353.12 1258.01 1339.18 1255.02 1293 1240.42C1265.67 1231.78 1255.49 1229.67 1218.85 1225.05C1206.5 1223.48 1200.17 1221.37 1196.3 1217.5C1194.49 1215.69 1193 1213.45 1193 1212.54C1193 1209.37 1218.69 1198.58 1241.56 1192.14C1274.61 1182.83 1308.98 1178.3 1367.76 1175.51C1396.92 1174.13 1406.97 1172.87 1411.87 1170.01C1414.48 1168.49 1414.44 1168.83 1411.69 1171.59ZM1338 1259.35C1346.13 1261.67 1359.4 1263.77 1369 1264.27L1373.5 1264.5L1366.09 1266.4C1356.43 1268.87 1346.8 1273.78 1340.18 1279.6L1334.86 1284.28L1336.43 1280.52C1339.4 1273.42 1338.62 1270.88 1330.64 1261.61C1327.19 1257.61 1326.2 1255.92 1327.53 1256.32C1328.61 1256.65 1333.32 1258.01 1338 1259.35ZM1405.73 1261.6C1405.4 1261.94 1404.53 1261.97 1403.81 1261.68C1403.02 1261.36 1403.25 1261.13 1404.42 1261.08C1405.47 1261.04 1406.06 1261.27 1405.73 1261.6ZM823.852 1318.25C787.333 1336.64 778.686 1343.9 772.982 1361C763.975 1387.99 740.079 1419.16 712.784 1439.52C701.735 1447.76 686.178 1457.51 685.372 1456.71C685.096 1456.43 686.191 1453.57 687.807 1450.35C697.556 1430.94 703.199 1402.26 704.306 1366.5L704.553 1358.5L711.027 1355.34C724.976 1348.53 745.476 1340.91 793 1324.86C820.225 1315.66 842.885 1308.11 843.355 1308.07C843.826 1308.03 835.049 1312.61 823.852 1318.25ZM977.5 1346C976.181 1346.57 976.011 1346.88 977 1346.91C977.825 1346.94 979.175 1346.53 980 1346C981.828 1344.82 980.249 1344.82 977.5 1346ZM699.543 1372.75C697.47 1407.7 691.976 1432.35 681.843 1452.17C675.04 1465.47 668.868 1473.26 652.666 1489C637.908 1503.33 625.675 1517.78 615.814 1532.5C612.499 1537.45 609.64 1541.66 609.46 1541.85C609.281 1542.04 609.728 1539.79 610.453 1536.85C615.518 1516.31 617.713 1506.81 622.091 1486.5C632.736 1437.11 638.895 1418.97 651.298 1400.5C656.149 1393.28 668.231 1381.18 676.759 1375C682.284 1371 698.762 1361 699.829 1361C700.055 1361 699.926 1366.29 699.543 1372.75ZM566 1622C565.411 1623.1 565.155 1624 565.43 1624C565.705 1624 566.411 1623.1 567 1622C567.589 1620.9 567.845 1620 567.57 1620C567.295 1620 566.589 1620.9 566 1622Z" fill="black"/>
</svg>
